<?xml version="1.0" encoding="UTF-8" standalone="no"?>
<!-- Created with Inkscape (http://www.inkscape.org/) -->

<svg
   width="117.64742mm"
   height="124.49277mm"
   viewBox="0 0 117.64742 124.49277"
   version="1.1"
   id="svg1"
   xml:space="preserve"
   inkscape:version="1.3 (0e150ed6c4, 2023-07-21)"
   sodipodi:docname="漢-楷體.svg"
   xmlns:inkscape="http://www.inkscape.org/namespaces/inkscape"
   xmlns:sodipodi="http://sodipodi.sourceforge.net/DTD/sodipodi-0.dtd"
   xmlns="http://www.w3.org/2000/svg"
   xmlns:svg="http://www.w3.org/2000/svg"><sodipodi:namedview
     id="namedview1"
     pagecolor="#ffffff"
     bordercolor="#000000"
     borderopacity="0.25"
     inkscape:showpageshadow="2"
     inkscape:pageopacity="0.0"
     inkscape:pagecheckerboard="0"
     inkscape:deskcolor="#d1d1d1"
     inkscape:document-units="mm"
     inkscape:zoom="1.4859428"
     inkscape:cx="228.47448"
     inkscape:cy="267.17045"
     inkscape:window-width="1920"
     inkscape:window-height="1051"
     inkscape:window-x="-9"
     inkscape:window-y="-9"
     inkscape:window-maximized="1"
     inkscape:current-layer="layer1" /><defs
     id="defs1"><inkscape:path-effect
       effect="fillet_chamfer"
       id="path-effect2"
       is_visible="true"
       lpeversion="1"
       nodesatellites_param="F,0,0,1,0,0,0,1 @ F,0,0,1,0,0,0,1 @ F,0,0,1,0,0,0,1 @ F,0,0,1,0,0,0,1 @ F,0,0,1,0,0,0,1 @ F,0,0,1,0,0,0,1 @ F,0,0,1,0,0,0,1 @ F,0,0,1,0,0,0,1 @ F,0,0,1,0,0,0,1 @ F,0,0,1,0,0,0,1 @ F,0,0,1,0,0,0,1 @ F,0,0,1,0,0,0,1 @ F,0,0,1,0,0,0,1 @ F,0,0,1,0,0,0,1 @ F,0,0,1,0,0,0,1 @ F,0,0,1,0,0,0,1 @ F,0,0,1,0,0,0,1 @ F,0,0,1,0,0,0,1 @ F,0,0,1,0,0,0,1 @ F,0,0,1,0,0,0,1 @ F,0,0,1,0,0,0,1 @ F,0,0,1,0,0,0,1 @ F,0,0,1,0,0,0,1 @ F,0,0,1,0,0,0,1 @ F,0,0,1,0,0,0,1 @ F,0,0,1,0,0,0,1 @ F,0,0,1,0,0,0,1 @ F,0,0,1,0,0,0,1 @ F,0,0,1,0,0,0,1 @ F,0,0,1,0,0,0,1 @ F,0,0,1,0,0,0,1 @ F,0,0,1,0,0,0,1 @ F,0,0,1,0,0,0,1 @ F,0,0,1,0,0,0,1 @ F,0,0,1,0,0,0,1 @ F,0,0,1,0,0,0,1 @ F,0,0,1,0,0,0,1 @ F,0,0,1,0,0,0,1 @ F,0,0,1,0,0,0,1 | F,0,0,1,0,0,0,1 @ F,0,0,1,0,0,0,1 | F,0,0,1,0,0,0,1 @ F,0,0,1,0,0,0,1 @ F,0,0,1,0,0,0,1 | F,0,0,1,0,0,0,1 @ F,0,0,1,0,0,0,1 | F,0,0,1,0,0,0,1 @ F,0,0,1,0,0,0,1 @ F,0,0,1,0,0,0,1 | F,0,0,1,0,0,0,1 @ F,0,0,1,0,0,0,1 @ F,0,0,1,0,0,0,1 @ F,0,0,1,0,0,0,1 | F,0,0,1,0,0,0,1 @ F,0,0,1,0,0,0,1 @ F,0,0,1,0,0.49311752,0,1 @ F,0,0,1,0,0,0,1"
       radius="0"
       unit="px"
       method="auto"
       mode="F"
       chamfer_steps="1"
       flexible="false"
       use_knot_distance="true"
       apply_no_radius="true"
       apply_with_radius="true"
       only_selected="false"
       hide_knots="false" /><inkscape:path-effect
       effect="fillet_chamfer"
       id="path-effect1"
       is_visible="true"
       lpeversion="1"
       nodesatellites_param="F,0,0,1,0,0,0,1 @ F,0,0,1,0,0,0,1 @ F,0,0,1,0,0,0,1 @ F,0,0,1,0,0,0,1 @ F,0,0,1,0,0,0,1 @ F,0,0,1,0,0,0,1 @ F,0,0,1,0,0,0,1 @ F,0,0,1,0,0,0,1 @ F,0,0,1,0,0,0,1 @ F,0,0,1,0,0,0,1 @ F,0,0,1,0,0,0,1 @ F,0,0,1,0,0,0,1 @ F,0,0,1,0,0,0,1 @ F,0,0,1,0,0,0,1 @ F,0,0,1,0,0,0,1 @ F,0,0,1,0,0,0,1 @ F,0,0,1,0,0,0,1 @ F,0,0,1,0,0,0,1 @ F,0,0,1,0,0,0,1 @ F,0,0,1,0,0,0,1 @ F,0,0,1,0,0,0,1 @ F,0,0,1,0,0,0,1 @ F,0,0,1,0,0,0,1 @ F,0,0,1,0,0,0,1 @ F,0,0,1,0,0,0,1 @ F,0,0,1,0,0,0,1 @ F,0,0,1,0,0,0,1 @ F,0,0,1,0,0,0,1 @ F,0,0,1,0,0,0,1 @ F,0,0,1,0,0,0,1 @ F,0,0,1,0,0,0,1 @ F,0,0,1,0,0,0,1 @ F,0,0,1,0,0,0,1 @ F,0,0,1,0,0,0,1 @ F,0,0,1,0,0,0,1 @ F,0,0,1,0,0,0,1 @ F,0,0,1,0,0,0,1 @ F,0,0,1,0,0,0,1 @ F,0,0,1,0,0,0,1 | F,0,0,1,0,0,0,1 @ F,0,0,1,0,0,0,1 | F,0,0,1,0,0,0,1 @ F,0,0,1,0,0,0,1 @ F,0,0,1,0,0,0,1 | F,0,0,1,0,0,0,1 @ F,0,0,1,0,0,0,1 | F,0,0,1,0,0,0,1 @ F,0,0,1,0,0,0,1 @ F,0,0,1,0,0,0,1 | F,0,0,1,0,0,0,1 @ F,0,0,1,0,0,0,1 @ F,0,0,1,0,0,0,1 @ F,0,0,1,0,0,0,1 | F,0,0,1,0,0,0,1 @ F,0,0,1,0,0,0,1 @ F,0,0,1,0,0,0,1 @ F,0,0,1,0,0,0,1"
       radius="0"
       unit="px"
       method="auto"
       mode="F"
       chamfer_steps="1"
       flexible="false"
       use_knot_distance="true"
       apply_no_radius="true"
       apply_with_radius="true"
       only_selected="false"
       hide_knots="false" /></defs><g
     inkscape:label="圖層 1"
     inkscape:groupmode="layer"
     id="layer1"
     transform="translate(-39.457999,-15.813529)"><path
       style="display:inline;opacity:1;fill:#000000;stroke-width:5.18513"
       d="m 111.9271,35.903565 c -2.99966,1.125851 -13.555825,2.907051 -13.555825,2.907051 0.789092,-6.182459 0.764364,-8.165154 -1.065471,-10.668852 -0.816395,-1.117088 -4.116874,-3.086564 -8.440866,-1.448782 -3.422606,2.218724 1.648554,5.387264 2.646821,12.510357 -3.32283,0.612418 -13.12202,1.163963 -15.743775,2.677549 8.468215,7.058966 9.096903,4.263655 17.115682,2.41738 0,0 0.98115,13.42818 2.580595,16.136429 1.623991,2.749829 2.176381,-2.06177 3.626076,-1.371879 1.754983,2.125081 2.676163,3.359398 3.396653,6.04343 -2.623989,1.046528 -13.249091,2.714745 -16.264168,2.937792 -4.560033,-1.737743 -6.297723,-2.533089 -8.756516,-1.795281 -0.166487,3.329174 4.746944,10.432183 5.789051,14.174379 1.102014,3.95725 1.708547,7.410818 4.696548,10.193482 2.932917,-0.694305 1.597871,-3.428751 2.503472,-3.801915 1.740311,-0.21214 9.252096,-1.19113 12.031603,-1.359343 l -0.0478,7.598368 c 0,0 -6.182696,1.400598 -11.100048,2.584175 -2.443089,0.588054 -7.588506,0.953744 -6.620663,1.904244 2.798946,2.748791 7.101524,2.505701 16.924141,0.32614 -0.01,0.66406 -0.21456,7.140501 -0.62541,8.375721 -6.570723,1.75985 -21.673608,3.78055 -31.0398,4.89526 -5.804243,0.36243 2.256634,7.14905 7.091621,5.93097 3.379786,-0.85145 15.580022,-3.69925 21.302312,-4.50367 -5.375981,7.51924 -9.077078,10.11954 -14.649797,13.91298 -6.323346,4.30441 -8.618674,4.05781 -15.465853,6.56855 -6.847179,2.51075 10.475452,2.72703 23.354261,-4.44911 6.081952,-3.38892 10.981186,-8.74444 14.484766,-16.70505 0,0 0.97076,-0.92336 1.70398,0.20183 7.098,10.89071 14.77157,19.65909 22.35586,23.51256 2.31386,1.17562 20.26029,-0.21614 23.74579,-2.62598 -0.54215,-2.83684 -4.7797,-3.27443 -15.24146,-7.1835 -5.97701,-2.23336 -8.08394,-0.85777 -27.38455,-15.32289 13.68321,-1.25806 25.74547,-1.13632 35.60329,-2.41735 1.21027,-5.36213 -5.29585,-7.37262 -10.57237,-7.42176 -7.3543,-0.0686 -17.02735,3.18102 -28.27289,4.81315 -0.0539,-0.85182 0.39005,-8.680571 0.80765,-8.824241 2.19047,-0.12809 13.76518,-1.55616 17.62221,-2.77586 0,0 0.22359,-3.753802 -3.26419,-5.028664 -5.47215,0.603348 -14.25542,2.871858 -14.25542,2.871858 l 0.40392,-7.609676 c 0,0 19.02141,-1.936602 23.32236,-2.743817 1.67615,-4.016724 -4.71047,-4.384688 -3.49128,-5.946504 2.84466,-3.644067 8.22689,-6.022748 7.44378,-10.353119 -5.16287,-2.527437 -7.84049,-6.260329 -9.83452,-5.776261 -5.35772,1.30075 -10.34025,3.136912 -16.06843,4.241151 0,0 0.6951,-4.766073 -3.29966,-5.813995 -2.00929,-0.527082 0.30358,-0.508144 0.65286,-0.882318 3.92182,-0.53919 7.6776,-1.092765 12.25014,-1.53511 1.72724,-3.361368 -3.39445,-3.571794 -3.51302,-4.603427 -0.0751,-0.653121 1.15778,-10.102785 1.68404,-10.317451 2.93777,-1.198235 10.34989,-1.336784 16.10385,-1.28177 0,0 1.79678,-3.114717 0.81605,-4.3759 -1.72039,-1.537239 -5.32798,-3.679121 -7.05583,-3.297285 -2.26029,0.499331 -8.03511,1.925401 -8.03511,1.925401 1.86672,-4.834423 3.00599,-7.221198 1.69405,-9.627832 -0.78938,-1.448004 -9.6523,-6.124176 -10.65716,-3.410115 -0.64254,1.73547 1.90514,9.016708 0.56852,15.618333 z M 72.342775,46.394157 c 2.828755,-5.906199 -2.05607,-9.596051 -4.545561,-11.814827 -2.882709,-2.569241 -9.601607,-5.034415 -13.29449,-3.873045 -2.063303,1.530605 2.824691,7.071399 7.353059,11.007121 4.528361,3.935736 9.007814,7.769133 10.486992,4.680751 z m 39.094635,5.116219 c -1.78849,0.701674 -8.07175,1.864392 -12.739759,2.391357 L 98.208015,43.579347 111.60062,40.901735 M 43.821516,58.180618 c -1.356155,4.744088 12.978955,20.07179 16.90801,14.249767 C 65.949786,64.69502 50.25063,57.115379 44.474358,57.691036 m 79.963032,9.210686 c 0.36612,5.921023 -1.14948,7.577618 -1.72266,10.191091 -3.67418,0.491554 -8.85405,1.940231 -13.36828,2.875069 0.0197,-5.659496 0.0599,-9.392548 0.98206,-11.885572 1.96619,-0.463545 12.02931,-3.092927 13.12961,-1.996687 m -20.97118,2.907007 c 0,0 0.44156,10.478393 0,12.347127 -3.326734,0.772382 -11.692241,2.194708 -13.00849,2.044539 -0.566108,-2.631343 -2.708261,-10.651477 -1.700605,-11.115075 3.632547,-0.855294 12.012439,-2.519043 14.709095,-2.460563 M 65.44555,84.083575 c -5.072632,7.690458 -16.277733,28.992175 -20.002736,34.131905 -2.250726,3.10552 5.612526,13.77399 10.56263,12.51283 0.706643,-7.46313 3.365294,-18.20663 11.857494,-47.460782 0.43685,-1.883288 -2.417388,0.815889 -2.417388,0.815889 z"
       id="path1"
       sodipodi:nodetypes="ccsccccsccccsccccsscccscszscsscsccscccccccscscsccssccscsscccscscccccsccccccccccccsccccs" /></g></svg>
